<svg height="128" viewBox="0 0 220 128" width="220" xmlns="http://www.w3.org/2000/svg"><g fill="none"><path d="m214.5 77.6h-2.6c-2.7-22.1-21.5-38.7-43.8-38.8h-66.8l-6.1 10.8c3.1 5.2 6.3 10.7 9.5 16.1 2.4 4 4.7 8 7 11.9l7.4 12.2c6.9 11.2 13.1 20.2 17.9 24.5 9.2 8.3 19.9 12.8 31 12.8 22.3 0 41.1-16.6 43.8-38.8h2.6c3 0 5.4-2.4 5.4-5.4 0-2.9-2.4-5.3-5.3-5.3zm-46.4 38.8c-10.6 0-18.8-5.4-23.8-10-3.3-3-8-9.7-13.3-18h70c-2.7 16.1-16.6 27.9-32.9 28zm-43.8-38.8c-3.4-5.7-6.9-11.7-10.3-17.4-2.1-3.6-4.2-7.2-6.3-10.6h60.3c16.3 0 30.3 11.9 32.9 28z" fill="#fff"/><path d="m51.8 77.6c-16.3 0-30.3-11.9-32.9-28h76.4l6.1-10.8c-7.2-11.6-13.6-21.2-18.4-25.9-8.3-8.2-19.5-12.8-31.2-12.9-22.3.1-41 16.7-43.8 38.8h-2.6c-3 0-5.4 2.4-5.4 5.4s2.4 5.4 5.4 5.4h2.6c2.7 22.1 21.5 38.7 43.8 38.8h66.5l.9 1.5-7.4-12.2h-60zm0-66.8c8.9.1 17.4 3.6 23.7 9.8 3.3 3.2 7.9 9.9 13.2 18.2h-69.8c2.6-16.1 16.6-28 32.9-28z" fill="#a0c46e"/></g></svg>