<?xml version="1.0" encoding="UTF-8"?>
<svg width="470px" height="179px" viewBox="0 0 470 179" version="1.1" xmlns="http://www.w3.org/2000/svg" xmlns:xlink="http://www.w3.org/1999/xlink">
    <!-- Generator: Sketch 55.1 (78136) - https://sketchapp.com -->
    <title>wordmark_logo</title>
    <desc>Created with Sketch.</desc>
    <g id="Narrative" stroke="none" stroke-width="1" fill="none" fill-rule="evenodd">
        <g id="wordmark_logo" fill-rule="nonzero">
            <path d="M214.5,129 L211.9,129 C209.2,106.9 190.4,90.3 168.1,90.2 L101.3,90.2 L101.3,90.2 L95.2,101 L95.2,101 C98.3,106.2 101.5,111.7 104.7,117.1 C107.1,121.1 109.4,125.1 111.7,129 L111.7,129 L119.1,141.2 C126,152.4 132.2,161.4 137,165.7 C146.2,174 156.9,178.5 168,178.5 C190.3,178.5 209.1,161.9 211.8,139.7 L214.4,139.7 C217.4,139.7 219.8,137.3 219.8,134.3 C219.8,131.4 217.4,129 214.5,129 L214.5,129 L214.5,129 Z M168.1,167.8 C157.5,167.8 149.3,162.4 144.3,157.8 C141,154.8 136.3,148.1 131,139.8 L201,139.8 C198.3,155.9 184.4,167.7 168.1,167.8 L168.1,167.8 Z M124.3,129 C120.9,123.3 117.4,117.3 114,111.6 C111.9,108 109.8,104.4 107.7,101 L168,101 C184.3,101 198.3,112.9 200.9,129 L124.3,129 Z" id="Shape" fill="#FFFFFF"></path>
            <path d="M51.8,129 C35.5,129 21.5,117.1 18.9,101 L95.3,101 L101.4,90.2 C94.2,78.6 87.8,69 83,64.3 C74.7,56.1 63.5,51.5 51.8,51.4 C29.5,51.5 10.8,68.1 8,90.2 L5.4,90.2 C2.4,90.2 0,92.6 0,95.6 C0,98.6 2.4,101 5.4,101 L8,101 C10.7,123.1 29.5,139.7 51.8,139.8 L118.3,139.8 L119.2,141.3 L111.8,129.1 L51.8,129.1 L51.8,129 Z M51.8,62.2 C60.7,62.3 69.2,65.8 75.5,72 C78.8,75.2 83.4,81.9 88.7,90.2 L18.9,90.2 C21.5,74.1 35.5,62.2 51.8,62.2 L51.8,62.2 Z" id="Shape" fill="#98BF62"></path>
            <path d="M148.3,80.5 C141.6,84.5 134,86.6 126.2,86.5 C118.5,86.5 111,84.4 104.5,80.3 C95.7,74.5 90.4,64.6 90.4,54 C90.4,45.8 93.6,37.5 99.9,32.1 C103.4,29 111.8,23.7 124.3,23.7 C128.8,23.7 141.5,24.4 151,34.2 C153.7,36.9 155.8,40 157.4,43.5 C158.8,46.7 159.6,49.6 160.2,56.3 L98.7,56.3 C99.8,71.7 112.5,79.7 127,79.7 C136.6,79.9 145.7,75.6 151.5,68 C152.2,67 152.7,66.3 153.9,64.4 L160.1,68.9 C157,73.3 153,77.3 148.3,80.5 Z M140.5,34.8 C137.4,32.9 132.4,30.3 123.8,30.3 C117.1,30.3 111.3,31.9 106.2,36.5 C104.1,38.5 102.3,40.8 100.9,43.3 C100,45.2 99.3,47.1 99,49.2 L150.6,49.2 C149.4,43.2 145.8,38 140.5,34.8 Z" id="Shape" fill="#FFFFFF"></path>
            <path d="M226.4,84.9 L226.4,50.4 C226.4,45.4 225.4,41.1 221.6,37.4 C218.1,34 211.6,31.4 200.9,31.4 C191.5,31.4 186.1,33.7 182.6,35.7 C180,37.2 177.9,39.2 176.2,41.7 C174.7,44.3 173.9,47.3 174,50.4 L174,84.9 L166.1,84.9 L166.1,25.5 L174,25.5 L174.1,33.8 C175.6,32.2 177.2,30.7 179,29.5 C183,27 190.4,23.9 201.9,23.9 C205.9,23.9 210,24.3 213.9,25.2 C216.9,25.9 227.4,28.3 231.8,37.9 C234,42.6 234.2,47.2 234.2,52.1 L234.2,84.9 C234.2,84.9 226.4,84.9 226.4,84.9 Z" id="Path" fill="#FFFFFF"></path>
            <path d="M309.9,71.8 C305.7,77.8 295.7,86.6 277.3,86.6 C274.2,86.6 271,86.4 267.9,85.8 C263.9,85.1 252.5,82.7 245.3,72.2 C241.9,67.2 240.1,61.3 240.1,55.2 C240.2,51.5 240.8,47.9 242,44.4 C245.7,34.3 254.3,29.4 257.5,27.8 C260.7,26.2 268.8,23.5 278.9,23.6 C282.5,23.7 294.4,24.1 303.7,31.7 C313.6,39.8 314.8,51.3 314.8,55.8 C314.9,61.4 313.1,67 309.9,71.8 Z M303.7,44.5 C297.1,30.5 280.8,30 277,30.1 C274.6,30.1 266.3,30.7 259.6,35.1 C256,37.5 249.3,43.6 249.3,55.3 C249.3,57.6 249.7,64.6 254.1,70.2 C259.4,77.2 269,79.8 277.3,79.8 C280.9,79.8 292.7,79.7 300.5,70.8 C304.2,66.4 306.1,60.9 306.1,55.2 C306,51.5 305.2,47.9 303.7,44.5 L303.7,44.5 Z" id="Shape" fill="#FFFFFF"></path>
            <path d="M380.7,84.9 L380.7,75.9 C379.4,77.4 378,78.7 376.5,79.9 C372.9,82.7 365.2,86.6 353.6,86.6 C342,86.6 329.3,81.9 322.6,71.9 C319.2,66.8 317.4,60.8 317.5,54.7 C317.6,34.4 335.5,23.6 354.1,23.6 C357.1,23.6 366.7,23.8 374.9,29.1 C377.3,30.5 379.3,32.5 380.7,34.9 L380.7,0 L388.6,0 L388.6,84.9 L380.7,84.9 Z M377,40.4 C376.2,39.2 375.2,38.1 374.1,37.3 C366.3,30.4 355.8,30.3 352.8,30.4 C349.3,30.6 345.9,31.3 342.6,32.4 C328.3,37.6 326.5,49.6 326.5,55.1 C326.5,58.9 327.4,62.7 329.1,66.2 C335.7,79.3 351.1,79.7 354.7,79.7 C362.5,79.7 371.9,77 376.7,70.3 C380.8,64.5 380.700216,56.2 380.700216,54.5 C380.700216,49.8 379.8,44.5 377,40.4 Z" id="Shape" fill="#FFFFFF"></path>
            <path d="M464.9,71.8 C460.7,77.8 450.7,86.6 432.3,86.6 C429.2,86.6 426,86.4 422.9,85.8 C418.9,85.1 407.5,82.7 400.3,72.2 C396.9,67.2 395.1,61.3 395.1,55.2 C395.1,51.5 395.8,47.9 397,44.4 C400.7,34.3 409.3,29.4 412.5,27.8 C415.7,26.2 423.8,23.5 433.9,23.6 C437.5,23.7 449.4,24.1 458.7,31.7 C468.6,39.8 469.8,51.3 469.8,55.8 C469.8,61.4 468.1,67 464.9,71.8 Z M458.6,44.5 C452,30.5 435.7,30 431.9,30.1 C429.5,30.1 421.2,30.7 414.5,35.1 C410.9,37.5 404.1,43.6 404.1,55.3 C404.1,57.6 404.5,64.6 408.9,70.2 C414.2,77.2 423.8,79.8 432.1,79.8 C435.7,79.8 447.5,79.7 455.3,70.8 C459,66.4 460.9,60.9 460.8,55.2 C460.9,51.5 460.2,47.8 458.6,44.5 L458.6,44.5 Z" id="Shape" fill="#FFFFFF"></path>
        </g>
    </g>
</svg>